<?xml version="1.0" standalone="no"?>
<!DOCTYPE svg PUBLIC "-//W3C//DTD SVG 20010904//EN"
 "http://www.w3.org/TR/2001/REC-SVG-20010904/DTD/svg10.dtd">
<svg version="1.0" xmlns="http://www.w3.org/2000/svg"
 width="2330.000000pt" height="2330.000000pt" viewBox="0 0 2330.000000 2330.000000"
 preserveAspectRatio="xMidYMid meet">
<metadata>
Created by potrace 1.14, written by Peter Selinger 2001-2017
</metadata>
<g transform="translate(0.000000,2330.000000) scale(0.100000,-0.100000)"
fill="#000000" stroke="none">
<path d="M3865 20720 c-36 -9 -51 -24 -86 -85 -18 -33 -41 -72 -49 -86 -208
-355 -309 -571 -404 -865 -61 -192 -134 -503 -151 -649 -4 -33 -9 -73 -11 -90
-31 -249 -23 -1074 12 -1305 3 -19 7 -51 10 -70 7 -57 43 -248 64 -345 11 -49
22 -99 24 -110 6 -29 75 -304 86 -340 162 -544 299 -897 535 -1380 86 -176
198 -386 282 -530 24 -40 35 -72 35 -97 -1 -54 -139 -450 -227 -655 -130 -298
-263 -521 -450 -753 -37 -46 -269 -275 -320 -316 -220 -177 -531 -303 -845
-343 -119 -16 -416 -6 -555 18 -333 57 -570 144 -940 346 -38 20 -102 55 -140
76 -83 45 -154 61 -156 35 -1 -9 -2 -19 -3 -23 -3 -9 -17 -88 -23 -123 -12
-75 -46 -264 -58 -325 -7 -38 -16 -88 -20 -110 -3 -23 -7 -50 -9 -62 -3 -12
-7 -43 -11 -70 -4 -26 -9 -59 -11 -73 -26 -168 -26 -960 0 -1106 2 -11 7 -45
11 -78 9 -75 11 -89 41 -226 14 -63 27 -122 29 -130 3 -14 12 -48 50 -185 29
-108 136 -417 188 -545 85 -209 177 -402 272 -570 74 -130 116 -213 111 -218
-3 -2 -38 14 -78 36 -40 22 -156 85 -258 140 -102 56 -194 107 -205 114 -11 7
-22 13 -25 13 -3 0 -30 14 -60 31 -30 18 -95 53 -145 79 -118 63 -203 108
-294 157 l-74 40 7 -28 c14 -53 63 -156 376 -779 320 -635 349 -692 478 -925
120 -218 165 -291 364 -590 200 -302 392 -562 544 -740 188 -220 354 -399 584
-626 85 -84 166 -162 180 -174 14 -12 41 -36 60 -54 341 -313 861 -692 1260
-918 325 -184 510 -278 815 -413 28 -12 104 -42 375 -146 150 -58 194 -79 184
-89 -5 -4 -61 -11 -124 -14 -63 -3 -124 -8 -135 -10 -11 -2 -54 -7 -95 -11
-41 -3 -82 -8 -90 -10 -8 -2 -44 -7 -80 -10 -36 -3 -72 -8 -80 -10 -8 -2 -44
-7 -80 -10 -36 -3 -72 -8 -80 -10 -8 -2 -46 -6 -83 -10 -37 -3 -77 -8 -87 -10
-10 -2 -50 -7 -87 -10 -37 -4 -70 -9 -73 -10 -3 -2 -32 -6 -65 -10 -33 -3 -69
-8 -80 -10 -11 -1 -45 -6 -75 -10 -78 -9 -90 -14 -90 -33 0 -14 34 -28 153
-66 332 -104 791 -254 1557 -506 308 -101 485 -153 611 -179 177 -37 353 -70
399 -76 30 -4 62 -9 71 -10 25 -5 111 -16 274 -34 128 -15 234 -17 715 -15
311 2 579 5 595 7 17 2 62 8 100 12 39 4 84 9 100 11 17 2 68 6 115 9 47 4
110 10 140 15 30 5 73 12 95 15 22 3 63 9 92 14 92 14 101 10 183 -81 191
-212 345 -349 523 -466 129 -84 341 -194 387 -199 39 -5 61 10 170 109 185
171 213 192 237 179 11 -5 71 -46 134 -90 182 -128 384 -220 609 -276 100 -25
118 -29 215 -45 195 -31 625 -34 735 -5 8 2 33 7 55 10 131 18 291 64 473 136
136 54 216 98 375 207 l108 74 37 -28 c20 -16 42 -33 48 -39 6 -5 49 -44 95
-85 46 -41 101 -92 124 -113 29 -27 49 -37 72 -37 45 0 264 112 411 211 152
102 246 183 430 374 168 174 137 163 382 134 85 -10 191 -21 235 -24 44 -4 94
-8 110 -11 92 -14 260 -19 700 -19 631 0 715 5 1080 66 427 72 531 99 1205
321 135 44 297 97 360 118 63 21 295 96 515 168 220 72 447 145 505 164 87 27
106 37 108 54 3 23 -10 28 -113 39 -27 3 -66 7 -85 10 -74 9 -304 33 -380 40
-36 4 -72 8 -80 10 -8 2 -46 7 -85 10 -38 4 -81 8 -95 11 -14 2 -49 7 -79 10
-30 3 -64 8 -75 10 -12 2 -46 7 -76 10 -30 3 -60 7 -67 9 -7 2 -70 7 -140 11
-70 4 -130 9 -133 11 -12 11 54 44 179 88 75 26 140 52 146 56 5 5 15 9 22 9
24 0 364 150 568 250 285 139 641 344 860 494 120 81 261 182 330 234 115 86
127 96 166 127 20 17 56 46 80 65 59 47 244 205 293 250 200 182 542 528 667
675 19 22 39 45 45 50 15 14 146 173 235 285 190 239 367 490 534 755 117 184
169 273 245 410 18 33 36 65 40 70 13 16 210 404 499 979 237 473 321 650 321
679 0 9 -83 -34 -485 -253 -148 -81 -304 -165 -345 -187 -41 -22 -124 -68
-185 -102 -110 -61 -125 -68 -125 -53 0 4 32 64 71 132 104 184 237 454 306
625 55 134 142 380 163 460 43 161 81 314 86 339 2 17 9 47 14 66 14 54 58
337 65 415 4 39 8 81 10 95 9 63 18 269 18 410 0 212 -11 384 -38 570 -2 14
-7 45 -10 70 -3 25 -10 70 -15 100 -5 30 -11 72 -14 93 -4 20 -8 54 -12 75 -3
20 -9 62 -14 92 -11 60 -15 91 -25 190 -4 36 -12 76 -19 90 -18 39 -77 31
-174 -21 -175 -96 -422 -221 -502 -255 -47 -19 -94 -40 -105 -45 -58 -28 -380
-106 -525 -128 -97 -15 -167 -18 -310 -16 -192 4 -231 7 -340 31 -36 8 -76 17
-90 20 -64 14 -215 70 -308 115 -188 91 -286 163 -468 344 -67 66 -146 149
-175 185 -53 64 -181 251 -233 340 -40 69 -164 317 -187 374 -12 28 -27 65
-34 81 -12 26 -24 58 -30 75 -1 3 -6 16 -12 30 -36 83 -133 373 -133 399 0 11
29 69 64 128 225 381 426 791 591 1208 26 66 51 129 55 140 12 28 119 338 125
360 1 6 5 17 8 25 41 108 191 698 213 835 4 28 8 55 9 60 1 6 6 35 10 65 4 30
9 64 11 75 1 11 6 49 9 85 3 36 8 94 11 130 34 355 37 704 8 1060 -2 30 -6 69
-9 85 -2 17 -7 53 -10 80 -41 345 -163 757 -329 1110 -87 185 -227 432 -328
579 -7 11 -160 12 -258 2 -315 -33 -728 -142 -1087 -287 -129 -52 -457 -209
-568 -272 -175 -99 -218 -124 -310 -180 -136 -83 -356 -232 -495 -335 -128
-95 -433 -335 -496 -391 -22 -20 -56 -49 -75 -65 -30 -26 -276 -244 -305 -271
-6 -5 -88 -85 -183 -177 l-171 -166 -48 13 c-26 7 -94 31 -152 53 -164 62
-638 219 -715 237 -5 1 -17 4 -25 8 -68 25 -551 146 -770 192 -135 29 -134 28
-230 45 -36 6 -76 13 -90 16 -14 2 -68 11 -120 19 -52 9 -106 18 -120 20 -34
5 -96 14 -150 20 -25 3 -56 7 -70 10 -14 2 -59 7 -100 11 -41 3 -88 8 -105 10
-225 25 -805 23 -980 -3 -65 -10 -249 -9 -400 3 -218 16 -926 10 -1165 -11
-25 -2 -76 -7 -115 -10 -64 -5 -286 -31 -345 -40 -14 -2 -56 -9 -95 -15 -129
-20 -379 -69 -510 -100 -49 -11 -103 -23 -120 -26 -37 -7 -374 -96 -470 -124
-38 -11 -78 -22 -88 -25 -70 -17 -506 -160 -760 -251 -59 -20 -84 -25 -102
-18 -13 5 -91 74 -173 154 -190 185 -344 328 -456 423 -12 10 -32 28 -46 41
-14 12 -77 65 -140 117 -63 51 -117 96 -120 99 -24 26 -410 304 -580 417 -324
217 -753 448 -1045 564 -230 91 -688 231 -827 253 -21 3 -75 12 -120 20 -152
26 -337 39 -383 26z"/>
</g>
</svg>
